<?xml version="1.0" encoding="UTF-8" standalone="no"?>
<svg
   xmlns:dc="http://purl.org/dc/elements/1.1/"
   xmlns:cc="http://creativecommons.org/ns#"
   xmlns:rdf="http://www.w3.org/1999/02/22-rdf-syntax-ns#"
   xmlns:svg="http://www.w3.org/2000/svg"
   xmlns="http://www.w3.org/2000/svg"
   xmlns:sodipodi="http://sodipodi.sourceforge.net/DTD/sodipodi-0.dtd"
   xmlns:inkscape="http://www.inkscape.org/namespaces/inkscape"
   version="1.1"
   id="Layer_1"
   x="0px"
   y="0px"
   width="100px"
   height="100px"
   viewBox="0 0 100 100"
   enable-background="new 0 0 100 100"
   xml:space="preserve"
   inkscape:version="0.48.4 r9939"
   sodipodi:docname="noun_project_12178.svg"><metadata
   id="metadata17"><rdf:RDF><cc:Work
       rdf:about=""><dc:format>image/svg+xml</dc:format><dc:type
         rdf:resource="http://purl.org/dc/dcmitype/StillImage" /></cc:Work></rdf:RDF></metadata><defs
   id="defs15">
		
	</defs><sodipodi:namedview
   pagecolor="#ffffff"
   bordercolor="#666666"
   borderopacity="1"
   objecttolerance="10"
   gridtolerance="10"
   guidetolerance="10"
   inkscape:pageopacity="0"
   inkscape:pageshadow="2"
   inkscape:window-width="1600"
   inkscape:window-height="838"
   id="namedview13"
   showgrid="false"
   inkscape:zoom="2.36"
   inkscape:cx="-16.101695"
   inkscape:cy="50"
   inkscape:window-x="-8"
   inkscape:window-y="105"
   inkscape:window-maximized="1"
   inkscape:current-layer="g3" />
<g
   id="g3">
	<g
   id="g5"
   style="fill:#18bc9c;fill-opacity:1">
		<path
   d="M93.581,10.952l-0.044-0.16l-0.052-0.158c-1.261-3.833-3.715-8.458-8.251-8.725l-0.19-0.011h-0.189    c-2.573,0-4.139,1.458-4.652,1.937c-0.19,0.177-0.409,0.389-0.686,0.658c-1.232,1.194-3.795,3.681-6.744,5.792    c-4.215,3.017-6.392,3.251-6.958,3.251c-0.084,0-0.162-0.004-0.23-0.013c-2.938-0.375-5.618-3.794-7.573-6.291    c-0.718-0.916-1.396-1.782-2.095-2.517C55.253,4.02,53.232,1.898,50,1.898c-3.233,0-5.252,2.122-5.917,2.818    c-0.699,0.735-1.378,1.601-2.095,2.517c-1.956,2.497-4.635,5.916-7.574,6.291c-0.066,0.008-0.14,0.013-0.221,0.013    c-0.657,0-2.582-0.278-6.274-2.848c-2.766-1.924-5.29-4.292-6.799-5.707c-1.837-1.723-3.289-3.084-5.969-3.084l-0.728,0    l-0.702,0.159c-4.248,0.959-6.148,5.354-7.208,8.577l-0.052,0.158l-0.043,0.16C3.383,22.082,2.346,32.381,3.335,41.563    c0.885,8.208,3.414,15.786,7.516,22.522c7.4,12.152,18.291,19.369,27.042,25.166c3.075,2.038,5.731,3.8,7.729,5.444L50,98.102    l4.231-3.288l0.146-0.118c1.997-1.645,4.653-3.406,7.729-5.444c8.751-5.797,19.642-13.014,27.041-25.166    c4.103-6.736,6.632-14.314,7.516-22.522C97.654,32.381,96.617,22.082,93.581,10.952z M50.268,89.714L50,89.922l-0.268-0.208    C35.689,78.128-1.697,65.258,12.651,12.652c1.013-3.083,1.972-4.176,2.494-4.294c0.003,0,0.004,0,0.008,0    c0.591,0,10.792,11.638,19.042,11.638c0.35,0,0.695-0.02,1.038-0.064C43.674,18.855,47.982,8.358,50,8.358    c2.017,0,6.325,10.497,14.767,11.573c0.345,0.044,0.694,0.065,1.047,0.065c8.299,0,18.752-11.638,19.04-11.638h0.001    c0.285,0.017,1.479,1.211,2.493,4.294C101.696,65.258,64.311,78.128,50.268,89.714z"
   id="path7"
   style="fill:#18bc9c;fill-opacity:1" />
	</g>
	<path
   inkscape:connector-curvature="0"
   id="path11"
   d="m 84.086,40.265 c 0.691,-6.399 0.154,-13.59 -1.593,-21.428 -4.899,3.935 -10.762,7.407 -16.679,7.407 -0.617,0 -1.232,-0.039 -1.829,-0.114 C 57.467,25.298 53.017,21.076 50,17.508 c -3.017,3.568 -7.468,7.791 -13.985,8.622 -0.594,0.076 -1.208,0.114 -1.821,0.114 -5.875,0 -11.545,-3.356 -16.664,-7.515 -1.766,7.88 -2.31,15.107 -1.617,21.536 0.694,6.432 2.572,12.091 5.744,17.297 2.607,4.283 6.096,8.247 10.668,12.118 4.134,3.504 8.608,6.468 12.555,9.082 1.782,1.181 3.509,2.326 5.121,3.462 1.61,-1.136 3.337,-2.281 5.119,-3.462 3.947,-2.614 8.421,-5.578 12.556,-9.082 4.571,-3.871 8.062,-7.835 10.668,-12.118 3.171,-5.207 5.05,-10.866 5.742,-17.297 z m -8.029,-0.837 c -0.567,5.266 -2.088,9.869 -4.649,14.075 -5.028,8.259 -13.444,13.833 -20.868,18.752 -0.135,0.091 -0.27,0.179 -0.405,0.269 V 28.64 c 3.315,2.479 7.476,4.581 12.594,5.233 0.924,0.117 1.871,0.177 2.816,0.177 3.727,0 7.31,-0.911 10.674,-2.359 0.154,2.722 0.1,5.304 -0.162,7.737 z"
   style="fill:#18bc9c;fill-opacity:1" />
</g>
</svg>